# xmcd CD database file
#
# Track frame offsets:
#	150
#	34187
#	56210
#	75135
#	128190
#	144310
#	177665
#	209207
#	256117
#
# Disc length: 4022 seconds
#
# Revision: 0
# Processed by: cddbd v1.4PL0 Copyright (c) Steve Scherf et al.
# Submitted via: CDex 1.51
#
DISCID=800fb409
DTITLE=John Coltrane - The Classic Quartet
DYEAR=1900
DGENRE=Jazz
TTITLE0=Miles' Mode
TTITLE1=I Wish I Knew
TTITLE2=After The Rain
TTITLE3=Lonnie's Lament
TTITLE4=Bessie's Blues
TTITLE5=A Love Supreme (Part 1, Resolution)
TTITLE6=Chim Chim Cheree
TTITLE7=Living Space
TTITLE8=Crescent
EXTD=
EXTT0=
EXTT1=
EXTT2=
EXTT3=
EXTT4=
EXTT5=
EXTT6=
EXTT7=
EXTT8=
PLAYORDER=
